# xmcd CD database file
# Copyright (C) 1993-1996 Ti Kan
#
# Track frame offsets:
# 150
# 21969
# 40680
# 69505
# 90012
# 101700
# 121029
# 137517
# 154147
# 174172
#
# Disc length: 2594 seconds
#
# Revision: 0
# Processed by: cddbd v1.4b41PL1 Copyright (c) Steve Scherf et al.
# Submitted via: inCDius 1.1b2
#
DISCID=6c0a200a
DTITLE=Kathy Priestley - Salt of the Earth
DYEAR=1900
DGENRE=
TTITLE0=Questions For A Fool
TTITLE1=Five String Guitar
TTITLE2=Sweet Grama Rose
TTITLE3=Again, With You
TTITLE4=Better Off Gone
TTITLE5=Our True Love
TTITLE6=Gimme That Piece Of Your Heart
TTITLE7=Counting Down To Me
TTITLE8=Scattered Dreams
TTITLE9=I Believe
EXTD=
EXTT0=
EXTT1=
EXTT2=
EXTT3=
EXTT4=
EXTT5=
EXTT6=
EXTT7=
EXTT8=
EXTT9=
PLAYORDER=
